<svg width="32" height="32" viewBox="0 0 32 32" fill="none" xmlns="http://www.w3.org/2000/svg">
<rect x="0.5" y="0.5" width="31" height="31" rx="15.5" fill="white" stroke="#5AB98C"/>
<circle cx="6.5" cy="15.5" r="4.37143" fill="white" stroke="#5AB98C" stroke-width="0.257143"/>
<path d="M5.49188 14.5683V14.3273H7.17499V14.5683H6.46931V16.5714H6.19756V14.5683H5.49188Z" fill="#15171C"/>
<circle cx="16.5" cy="25.5" r="4.37143" fill="white" stroke="#5AB98C" stroke-width="0.257143"/>
<path d="M15.7461 24.3273L16.3247 25.2609H16.3422L16.9208 24.3273H17.2407L16.5351 25.4493L17.2407 26.5714H16.9208L16.3422 25.6554H16.3247L15.7461 26.5714H15.4261L16.1493 25.4493L15.4261 24.3273H15.7461Z" fill="#15171C"/>
<circle cx="24.5" cy="10.5" r="4.37143" fill="white" stroke="#5AB98C" stroke-width="0.257143"/>
<path d="M23.4217 9.32727H23.7329L24.3553 10.3748H24.3816L25.0041 9.32727H25.3153L24.5044 10.6466V11.5714H24.2326V10.6466L23.4217 9.32727Z" fill="#15171C"/>
<path d="M22 14L20.7578 15.0219L22.2639 15.5867L22 14ZM19 22L19.1304 22.0489L21.6902 15.2228L21.5598 15.1739L21.4294 15.125L18.8696 21.9511L19 22Z" fill="black"/>
<path d="M10 19L10.4163 20.5537L11.5537 19.4163L10 19ZM13 22L13.0985 21.9015L10.985 19.788L10.8865 19.8865L10.788 19.985L12.9015 22.0985L13 22Z" fill="black"/>
<path d="M20 11L18.4241 10.6775L18.9328 12.2035L20 11ZM11 14L11.0441 14.1322L18.8547 11.5286L18.8106 11.3965L18.7666 11.2643L10.9559 13.8678L11 14Z" fill="black"/>
</svg>
