<svg width="34" height="36" viewBox="0 0 34 36" fill="none" xmlns="http://www.w3.org/2000/svg">
<path d="M1 18C1 9.16344 8.16344 2 17 2V2C25.8366 2 33 9.16344 33 18V18C33 26.8366 25.8366 34 17 34V34C8.16344 34 1 26.8366 1 18V18Z" fill="#5AB98C"/>
<path d="M17.0054 0.68552C17.7275 0.526113 18.4651 0.502021 19.2008 0.664554C19.368 0.701782 19.3352 0.822461 19.4012 0.851584C19.5217 0.905133 19.7535 0.806379 19.784 0.811545C19.9699 0.840185 19.8613 1.04157 19.8848 1.05383C20.1431 1.18775 20.1074 0.931173 20.3753 0.958587C20.7248 0.995491 21.1528 1.13817 21.5554 1.26063C21.6966 1.30475 21.5902 1.44402 21.8966 1.51914C22.111 1.56898 22.8315 1.60952 23.0572 1.91263C23.0322 1.98402 22.9656 2.04818 22.9229 2.11553C23.4528 1.98038 23.6086 2.05326 24.1612 2.38718C24.248 2.44051 24.3905 2.36375 24.5316 2.48535C24.6719 2.6078 24.5906 2.78774 24.9064 2.94961C25.0183 3.00724 25.1526 2.91905 25.3267 3.00871C25.8274 3.25778 26.6176 3.97769 26.9718 4.25223C27.6763 4.78608 28.2045 4.91909 28.7333 5.52339C28.7735 5.56963 28.5705 5.59028 28.6494 5.66885C28.7285 5.74765 28.9548 5.68244 28.9784 5.69871C29.2356 5.87118 29.474 6.52049 29.6058 6.62115C29.9345 6.86911 29.7398 6.50767 30.1374 6.91074C30.5175 7.29939 30.7539 8.05225 31.0015 8.51465C31.287 9.04896 31.7211 9.0239 31.6039 9.62365C32.4236 11.0014 33.0394 12.5098 33.4318 14.0705C33.3525 14.0847 33.273 14.0983 33.1935 14.1117C33.2768 14.2207 33.3592 14.3314 33.4397 14.444C33.3772 14.4378 33.3147 14.4328 33.2528 14.427C33.603 14.953 33.8136 15.4701 33.8268 16.174C33.8271 16.1878 33.6638 16.1692 33.6609 16.1809C33.6478 16.3401 33.7865 16.5007 33.7685 16.641C33.7285 16.9817 33.3984 17.5515 33.8163 17.2888C33.7998 17.5166 33.7993 17.7556 33.8019 18C33.8019 18 33.8019 18 33.8019 18C33.8088 18.5857 33.8298 19.1983 33.7185 19.7106C33.6497 20.027 33.3846 20.0887 33.3506 20.2351C33.3158 20.3814 33.5418 20.3362 33.5426 20.3906C33.5472 20.7183 33.4388 21.2471 33.1879 21.2514C33.2708 21.3332 33.3534 21.4208 33.4354 21.5063C33.1844 21.4154 33.065 22.4065 32.9762 22.6562C32.9617 22.7018 32.8462 22.6747 32.8372 22.7093C32.7368 23.0942 32.8814 23.2461 32.8255 23.5944C32.805 23.7163 32.6729 23.4691 32.6511 23.7918C32.6484 23.8198 32.8326 23.8723 32.6939 24.2227C32.4798 24.781 32.0504 25.8584 31.6038 26.4275C31.5683 26.4741 31.4804 26.2194 31.3879 26.4718C31.3534 26.5629 31.5028 26.5978 31.3816 26.7992C30.9091 27.5828 30.2065 28.2604 29.705 29.0461C29.604 28.9122 29.6774 28.5478 29.4342 28.9833C29.3951 29.0531 29.5433 29.1066 29.524 29.1366C29.364 29.3795 29.1182 29.49 28.9415 29.7501C28.8892 29.8272 28.9547 29.9246 28.8918 30.0253C28.7984 30.1741 28.6308 30.1084 28.5354 30.2939C28.385 30.5832 28.4487 30.7366 27.9598 30.7575C26.3386 32.18 24.4505 33.3545 22.3592 33.9156C21.7962 34.1962 21.2622 34.4463 20.6265 34.6193C20.4379 34.6694 20.3615 34.4741 20.0743 34.5981C20.0128 34.6268 19.5561 34.9284 19.4265 34.5204C19.2987 34.5756 19.2142 34.5881 19.1017 34.6248C19.1968 34.6751 19.2956 34.7249 19.3886 34.7747C18.8899 34.7766 18.5051 34.9623 18.0656 35.0604C17.742 35.1302 17.9635 34.9375 17.7665 34.9653C17.5701 34.9911 17.4782 35.035 17.2278 34.823C17.1491 34.9269 17.0793 34.958 17 34.958C17 34.958 17 34.958 17 34.958C16.8871 34.9578 16.7557 34.8955 16.5462 34.8862C16.508 34.8848 16.2825 34.9747 16.0972 34.9453C15.9632 34.924 15.9332 34.7672 15.7209 34.7758C15.6866 34.7782 15.2245 34.9307 15.0765 34.93C14.8481 34.9333 14.5242 34.6862 14.4835 34.6771C13.8737 34.5471 13.5949 34.6876 13.2342 34.2752C13.1052 34.4434 12.7159 34.4659 12.4294 34.3656C12.0623 34.2439 11.4771 33.6322 11.242 33.9855C10.8937 33.6596 10.8989 33.7861 10.4168 33.5905C9.96973 33.4194 8.92886 32.7152 8.59604 32.5349C8.25685 32.3619 8.29814 32.6537 8.15101 32.6015C7.90947 32.5137 8.11476 32.4398 7.96854 32.3512C7.55615 32.0991 7.19254 31.8875 6.77636 31.6694C6.82814 31.5586 6.87925 31.4464 6.93124 31.3356C6.8884 31.3532 6.84551 31.3708 6.80246 31.3882C6.72485 31.3275 6.63619 31.2617 6.56696 31.2022C6.85418 32.0946 5.99466 30.7101 5.69042 30.3882C5.41616 30.1263 4.78674 29.8545 4.4577 29.5739C4.37787 29.5067 4.52134 29.4715 4.5048 29.4579C4.3108 29.2994 4.21835 29.3303 4.00853 29.0677C3.89798 28.9278 3.90813 28.6856 3.804 28.5505C3.03901 27.5587 2.24662 26.6139 1.6734 25.4853C1.57599 25.2929 1.67798 25.0429 1.60929 24.8791C1.51128 24.6443 1.29928 24.5586 1.20642 24.3351C1.11328 24.1118 1.17475 23.72 1.09456 23.5786C1.01397 23.4351 0.927578 23.7599 0.879167 23.4606C0.857829 23.3233 1.06718 23.5072 1.0175 23.3463C0.862026 22.8483 0.49523 22.173 0.542448 21.588C0.506901 21.621 0.477466 21.6621 0.445105 21.7004C0.331693 21.1109 0.342174 20.5743 0.284921 19.9653C0.264398 19.7511 0.107084 19.3788 0.0941529 19.1654C0.0806843 18.953 0.208904 18.8492 0.205608 18.6822C0.204739 18.6132 0.0866373 18.6446 0.0873858 18.5979C0.0918387 18.3698 0.129208 18.1807 0.171696 18C0.171696 18 0.171696 18 0.171696 18C0.238604 17.7173 0.316411 17.4588 0.320866 17.0915C0.34663 14.8752 0.854717 12.5775 1.79957 10.4967C1.83748 10.4132 1.72636 10.2879 1.76807 10.1567C1.83274 9.95471 1.95968 10.0106 1.97674 9.9885C2.08899 9.84399 1.94148 9.84783 2.06028 9.63428C2.32021 9.16169 2.88022 8.49389 3.18639 8.06048C3.8879 7.05675 4.48824 6.19996 5.33987 5.32653C5.40125 5.26373 5.48158 5.43901 5.59468 5.33989C6.40438 4.6597 6.46699 4.36689 7.59634 3.65948C8.71765 2.9345 11.0394 1.96903 12.5431 1.63138C12.5432 1.63179 12.5433 1.6322 12.5435 1.63262C12.9225 1.17557 13.5825 1.11495 14.1367 1.28328C11.3796 2.61633 8.74082 3.41016 6.33694 5.46175C3.8254 7.63188 2.45787 10.9564 1.61046 13.9955C1.52855 14.2834 1.31277 14.3582 1.29766 14.6182C1.29537 14.6618 1.46442 14.5841 1.45182 14.7164C1.34854 15.7944 1.16089 16.8901 1.10339 18C1.10339 18 1.10339 18 1.10339 18C1.06408 18.7509 1.08439 19.4969 1.22111 20.2057C1.31504 20.6764 1.49363 20.7245 1.61492 21.1224C1.52346 21.0664 1.43358 21.035 1.34368 20.9863C1.46275 22.9376 2.28724 24.7757 3.29249 26.4621C3.33781 26.5386 3.20595 26.6348 3.25145 26.7179C3.34245 26.8847 3.59118 26.9361 3.68788 27.0669C3.8148 27.2379 3.73034 27.3426 3.85287 27.4985C3.91328 27.574 3.99605 27.4777 4.10358 27.6572C4.11267 27.6722 4.0148 27.7601 4.11317 27.8611C4.37992 28.1407 4.96627 28.6623 5.20496 28.8662C5.50527 29.1306 5.59438 29.4945 5.69587 29.6112C5.96996 29.9227 6.10193 29.7687 6.35855 29.9993C8.1929 31.6197 10.2128 33.0016 12.6892 33.6866C12.8467 33.7323 13.4703 33.6561 13.7555 33.7207C13.8495 33.746 14.3451 33.8963 14.4221 33.9115C14.7284 33.9798 14.9799 34.1477 15.152 34.1957C15.4858 34.2901 15.8785 34.1065 16.0618 34.0952C16.3362 34.0805 16.7861 34.1069 17 34.1142C17 34.1142 17 34.1142 17 34.1142C17.0371 34.1157 17.0669 34.1169 17.087 34.1176C17.4127 34.1276 17.3109 34.3906 17.5454 34.323C17.6142 34.3021 17.5354 34.1052 17.7767 34.0945C17.9793 34.0852 18.072 34.2303 18.2143 34.2474C18.3577 34.2645 18.5906 34.0083 18.6762 34.0049C19.1301 33.9883 19.3479 34.114 19.8429 34.0375C20.2605 34.0024 22.0754 33.4013 22.1957 33.2735C22.7765 32.8117 21.7127 33.2971 21.6443 33.2996C21.2907 33.3546 21.3186 33.2487 21.022 33.5138C20.5961 33.0612 19.6885 34.1247 19.301 33.5054C19.0802 33.9815 18.7985 33.7928 18.4908 33.7332C18.0628 33.6476 18.4031 33.8765 18.0948 33.9012C17.9712 33.911 17.6116 33.7296 17.4328 33.7612C17.2708 33.7903 17.1941 33.918 17 33.9497C17 33.9497 17 33.9497 17 33.9497C16.9783 33.9532 16.9552 33.9555 16.9304 33.9562C16.4898 33.9695 16.1389 33.8814 15.7893 33.6715C15.7169 33.7472 15.648 33.8229 15.5747 33.8978C15.3309 33.7888 15.086 33.6741 14.8508 33.5545C14.8807 33.6301 14.9113 33.7061 14.9424 33.7815C14.8675 33.7822 14.7925 33.7818 14.7178 33.7809C14.4896 33.6405 14.2729 33.5045 14.0498 33.3499C13.3021 33.6167 13.5634 33.3055 13.2133 33.1679C12.8637 33.0252 12.5893 33.1923 12.3074 33.107C11.9284 32.9896 11.7474 32.9585 11.3783 32.802C11.1637 32.7112 10.8888 32.3493 11.0507 32.807C10.3637 32.5686 9.41334 32.2067 8.9268 31.7431C8.78361 31.6085 9.0615 31.6404 9.04037 31.6113C8.93587 31.4721 8.72387 31.5601 8.59504 31.4482C8.37994 31.2642 8.0155 30.8427 7.86233 30.6876C7.63972 30.4694 7.10714 30.3542 7.05602 30.3338C6.77398 30.2304 6.84444 30.027 6.767 29.9794C6.32556 29.7039 6.18419 29.6785 6.35508 29.2644C6.13612 29.311 5.51824 29.1267 5.64747 28.8157C5.44529 29.0047 5.158 28.6312 4.91849 28.4569C4.94368 28.364 4.96865 28.2712 4.99576 28.1788C4.22215 28.0449 3.77715 26.8401 3.43818 26.1401C3.42922 26.1227 3.23326 26.1986 3.21267 26.0717C3.21218 26.0632 3.29833 26.0268 3.26874 25.952C3.16054 25.7062 2.91439 24.7187 2.87666 24.6155C2.70915 24.2354 2.54074 24.2274 2.42848 23.9969C2.28356 23.6917 2.39607 23.5955 2.26811 23.3036C2.20955 23.167 1.99074 23.0977 1.94182 22.8628C1.91318 22.7239 2.0466 22.6676 2.02559 22.5594C1.95293 22.1748 1.79077 21.915 1.89435 21.5363C1.42771 21.5517 1.71936 21.3112 1.71924 21.1374C1.71529 20.4338 1.41697 19.6008 1.42415 18.9968C1.42657 18.656 1.44545 18.3277 1.47693 18C1.62311 16.5263 2.00634 15.2131 2.4495 13.8378C2.53901 13.5663 2.33953 13.4321 2.44901 13.1455C2.49914 13.0171 2.70157 12.9392 2.78043 12.7327C2.84428 12.5664 2.8588 12.297 2.94643 12.0911C2.96957 12.0363 3.11523 12.0924 3.15064 12.0133C3.41976 11.4153 3.61321 10.7937 3.89287 10.1769C3.99691 9.94807 4.25543 9.92924 3.92825 9.7727C4.0543 9.7384 4.16922 9.70205 4.29083 9.67552C4.2907 9.26427 4.64529 9.1655 4.87672 8.76456C4.89971 8.72171 4.92211 8.28813 5.18955 8.2483C5.09979 8.15564 4.99597 8.11035 4.91013 8.03194C5.0006 7.84421 5.31567 7.70737 5.41687 7.61822C5.51776 7.5284 5.45679 7.34929 5.48362 7.31794C5.58693 7.20087 5.72159 7.37813 5.7323 7.37189C6.37979 7.00221 6.24053 6.9862 6.33553 6.44438C6.35944 6.30344 7.07679 5.99829 7.03276 5.70619C7.10468 5.78409 7.13119 5.88256 7.18601 5.96819C7.37462 5.84929 7.56718 5.73425 7.7606 5.62361C7.66218 5.57028 7.55546 5.52341 7.45881 5.46855C7.87596 5.26194 8.05301 4.84848 8.3778 4.64711C8.56338 4.53358 8.66061 4.73857 8.74158 4.63029C8.75756 4.60902 8.6419 4.50206 8.69855 4.45289C9.16505 4.05537 9.47879 4.06528 10.0279 3.82408C10.2852 3.71415 10.3968 3.35619 10.8448 3.36347C10.8876 3.36305 11.3388 3.44222 11.4474 3.02927C11.56 3.10559 11.6439 3.13708 11.7297 3.20541C12.0263 2.55263 12.0702 3.07013 12.7338 3.0005C13.0779 2.9563 14.1753 2.61955 14.5429 2.51706C14.7581 2.44946 14.7254 2.24857 14.7642 2.23455C14.9974 2.15505 15.0225 2.35212 15.239 2.29446C15.4559 2.23723 15.7162 1.98891 15.9507 1.99466C16.1288 1.99978 16.0044 2.25318 16.2579 2.15445C16.3107 2.13369 16.1475 1.93054 16.4254 2.00177C16.4703 2.01144 16.9122 2.22901 17 2.27968C16.7677 2.40747 16.128 2.60092 15.8899 2.67492C11.6101 3.38844 4.87935 8.24477 3.53718 12.4678C3.37996 12.8244 3.09066 12.9939 2.98853 13.2343C2.88837 13.4746 3.14432 13.3287 3.0567 13.5457C2.97006 13.7625 2.78861 13.886 2.71837 14.0965C2.30156 15.3461 2.04863 16.6693 2.00618 18C2.00618 18 2.00618 18 2.00618 18C2.00054 18.1748 1.99846 18.3487 1.99995 18.5217C2.00401 18.9094 2.18668 19.2101 2.22202 19.5546C2.23627 19.6901 2.03152 19.7176 2.04483 19.8151C2.18963 20.866 2.59879 21.769 2.90355 22.754C3.02993 23.1626 3.03696 23.6627 3.19715 24.0662C3.3281 24.3989 3.59667 24.6784 3.74656 24.9574C3.82831 25.1086 3.73459 25.264 3.75444 25.3257C3.82599 25.538 3.95602 25.3759 4.01121 25.4725C4.164 25.7369 4.04661 25.9897 4.21984 26.2265C4.28826 26.3186 4.40389 26.2256 4.51404 26.3493C4.65459 26.5056 4.49862 26.5187 4.57997 26.6449C4.58462 26.6526 4.65464 26.5682 4.70346 26.6304C5.01765 27.0319 5.47461 27.4755 5.79137 27.8441C6.44192 28.6073 7.04116 29.439 7.77795 30.0535C7.96422 30.2074 7.99613 30.0576 8.06084 30.0977C8.37278 30.2873 8.38668 30.4986 8.74065 30.6614C8.80013 30.6889 9.117 30.6665 9.2996 30.8322C9.39828 30.9221 9.46793 31.1005 9.55308 31.1806C9.63826 31.2605 9.73943 31.1162 9.85761 31.1805C10.0737 31.2955 9.9532 31.3714 10.2786 31.5115C10.411 31.5694 10.9064 31.6222 11.2353 31.7717C11.7698 32.0197 12.4192 32.4098 13.1036 32.5931C13.339 32.6569 13.6802 32.5555 14.0438 32.6268C14.4858 32.7188 15.3117 32.8767 15.7763 32.9111C16.0134 32.9309 16.0196 33.119 16.0478 33.129C16.2299 33.1923 16.1676 32.9773 16.289 32.9917C16.4554 33.0109 16.6088 33.1712 16.7644 33.1838C16.8636 33.1918 16.8805 33.0362 16.9017 33.0352C16.9346 33.0332 16.9674 33.0313 17 33.0294C17 33.0294 17 33.0294 17 33.0294C17.7465 32.9838 18.409 32.9497 19.1451 32.8294C23.2807 32.1602 26.9333 29.5921 29.2729 26.2432C29.4688 25.9618 29.6409 26.0553 29.7757 25.7785C29.9113 25.4982 29.6819 25.0432 30.2108 25.0455C30.1314 24.9939 30.0717 24.9629 29.9997 24.9154C30.411 24.4271 30.5464 23.7945 30.7447 23.2245C30.892 22.8005 31.0304 22.4263 31.1539 22.0306C31.2614 21.6795 31.4128 21.7471 31.2793 21.3876C31.6351 20.3032 31.7794 19.1507 31.8598 18C31.8598 18 31.8598 18 31.8598 18C31.8915 17.5468 31.914 17.0969 31.9363 16.6425C31.552 16.3033 31.7326 15.9347 31.6953 15.4119C31.6906 15.3481 31.5769 15.4372 31.5536 15.2509C31.5224 15.0187 31.692 14.8563 31.5884 14.4666C31.5645 14.3602 31.1502 13.6643 31.1608 13.3589C31.1773 13.0484 31.0936 12.6277 31.0761 12.3039C31.0145 12.3758 30.9602 12.4565 30.9005 12.5313C30.8318 12.3965 30.7617 12.2627 30.689 12.1302C30.7732 12.0703 30.8573 12.01 30.942 11.9498C30.8183 11.9065 30.6956 11.8646 30.5705 11.8249C30.9617 11.4353 30.8923 11.6802 30.5882 11.3515C30.435 11.188 30.4378 10.9952 30.2868 10.8262C30.2319 10.7655 30.0736 10.7949 30.0145 10.7292C29.8694 10.5682 30.1131 10.5716 30.0463 10.4576C29.9774 10.3423 29.6836 10.2992 29.6452 10.0455C30.1291 10.0383 29.6218 9.49408 29.3361 9.65056C29.2881 9.5808 29.2587 9.51468 29.1974 9.44325C29.9105 9.05096 29.1762 9.00725 28.9819 8.9377C28.7868 8.86389 28.9625 8.73745 28.9302 8.70938C28.8374 8.62917 28.8205 8.75378 28.7662 8.68987C28.4084 8.26803 28.1605 7.78786 27.7808 7.3844C27.7262 7.32672 27.6884 7.46291 27.6321 7.38923C27.5758 7.31577 27.5985 7.16624 27.4936 7.07702C27.4655 7.05305 27.3827 7.12298 27.3414 7.08393C26.4794 6.26298 25.6201 5.50208 24.5657 4.87428C24.4698 4.81781 24.3006 4.94128 24.1183 4.83456C23.9371 4.72817 23.7281 4.42634 23.4921 4.30012C23.4297 4.26661 23.3448 4.40302 23.2626 4.36045C22.9827 4.21608 22.7821 3.98953 22.4804 3.84945C21.9689 3.61276 21.3843 3.52543 20.8589 3.29082C20.7584 3.2467 20.809 3.12181 20.6651 3.04765C20.4157 2.92122 20.4709 3.13473 20.412 3.14754C20.2205 3.19035 20.2191 2.92616 20.0351 2.95653C20.0072 2.96141 20.014 3.11886 19.9904 3.11659C19.63 3.07404 19.6681 2.71604 19.2496 2.84646C18.9325 2.59247 19.5224 2.6062 19.6032 2.51125C19.798 2.27412 19.4502 1.89749 19.2208 1.76648C19.0242 1.65307 19.0046 1.81853 18.9224 1.80865C18.4854 1.75492 17.8314 1.74345 17.5014 1.65751C17.2995 1.60444 17.6682 1.54639 17.5661 1.48883C17.464 1.43106 17.3941 1.55383 17.2899 1.41587C17.1869 1.2775 16.9634 0.876539 17.0054 0.68552ZM29.6424 28.4828C29.5905 27.5563 30.6132 26.1997 31.0866 25.3811C31.4921 24.7253 32.21 24.2871 31.4766 24.1529C31.145 24.9113 30.9022 25.5461 30.4227 26.2854C30.3741 26.3639 30.0216 26.7836 29.902 26.9301C29.8357 27.0136 29.7353 26.9472 29.653 27.0644C29.6358 27.0899 29.6607 27.3232 29.6187 27.3721C29.478 27.5443 28.8853 27.8957 28.8319 27.9648C28.687 28.1672 28.8903 28.2168 28.845 28.3212C28.6866 28.6709 28.4516 28.5108 28.2708 28.8335C28.2386 28.8906 28.264 29.2177 28.0462 29.3844C27.9577 29.452 27.7352 29.488 27.6781 29.5487C27.3681 29.8812 27.0829 30.3405 26.7309 30.5771C26.4424 30.7693 26.4025 30.5605 26.2428 30.6472C26.0841 30.7331 26.0316 31.0378 25.9347 31.119C25.7807 31.2488 25.5094 31.2756 25.4587 31.3097C24.4571 31.9879 23.5397 32.5969 22.4407 33.0529C23.2285 32.8601 24.0028 32.5991 24.7596 32.2891C25.0681 31.8943 24.9559 32.1672 25.2509 32.0673C25.4838 31.9854 25.3613 31.6724 25.6436 31.5368C25.6434 31.537 25.6432 31.5371 25.6429 31.5373C25.7877 31.4681 26.2113 31.4649 26.4382 31.1831C26.4458 31.1727 26.3716 31.016 26.5733 30.8588C27.0313 30.5058 27.6457 29.872 28.1301 29.4461C28.273 29.3213 28.373 29.4775 28.5488 29.3316C28.6768 29.224 28.6879 28.9711 28.8884 28.8066C29.1391 28.6009 29.4624 28.6647 29.2987 28.2374C29.4201 28.3148 29.5212 28.411 29.6424 28.4828ZM31.6921 11.4678C31.6923 11.4219 31.8321 10.674 31.4804 11.045C31.6466 11.8653 32.059 12.6408 32.1893 13.4917C32.5587 13.0791 32.2286 12.6479 31.9758 12.102C31.9757 12.1018 31.9757 12.1016 31.9756 12.1013C31.9635 12.0753 32.1223 12.1415 32.0414 11.9982C32.0019 11.9276 31.7144 11.7229 31.6921 11.4678Z" fill="white"/>
<circle cx="7.5" cy="17.5" r="4.5" fill="white"/>
<path d="M12.7332 17.8131C12.7426 17.9989 12.6934 18.2386 12.6324 18.4138C12.6135 18.4686 12.5796 18.4329 12.5646 18.4699C12.5351 18.5416 12.5392 18.616 12.5039 18.6853C12.4921 18.7081 12.438 18.6635 12.4269 18.6874C12.3668 18.8181 12.3458 18.9506 12.2883 19.0825C12.0048 19.7283 11.6348 20.3113 11.147 20.8075C10.9859 20.9722 10.7473 21.1204 10.5816 21.2864C10.5623 21.306 10.6097 21.3387 10.6085 21.3455C10.5875 21.4519 10.5393 21.3474 10.4882 21.3685C10.2851 21.452 10.0912 21.5755 9.92656 21.6952C9.85641 21.746 9.98599 21.7987 9.87927 21.788C9.87197 21.7873 9.86255 21.7254 9.83888 21.7314C9.78546 21.7452 9.70107 21.8013 9.66179 21.8155C9.5863 21.8427 9.57482 21.8488 9.50635 21.8798C9.41204 21.9216 9.28885 21.9417 9.19082 21.9927C9.16981 22.0037 9.22035 22.0491 9.18828 22.072C9.15626 22.095 9.0594 22.1233 9.02271 22.1202C8.98609 22.1173 8.98525 22.0677 8.97624 22.0593C8.90259 21.9874 8.83127 22.1406 8.81674 22.1477C8.56896 22.2726 8.3224 22.2468 8.07376 22.277C7.88499 22.3 7.68315 22.3349 7.5 22.3318C7.49848 22.3318 7.49697 22.3318 7.49546 22.3318C7.27602 22.3269 7.0952 22.2823 6.88527 22.2616C6.86309 22.2593 6.88003 22.3328 6.85263 22.33C6.5612 22.2997 6.27417 22.2266 6.01351 22.0921C5.98746 22.0785 6.04201 22.0309 6.01745 22.0139C5.86373 21.9116 5.66935 21.6984 5.46117 21.8982C5.35624 21.8382 5.23055 21.7609 5.16467 21.6609C5.12254 21.5966 5.21351 21.5709 5.12737 21.5543C5.10796 21.5504 5.09901 21.6139 5.07194 21.6039C4.95744 21.5614 4.85796 21.4741 4.74311 21.4307C4.71962 21.4219 4.69433 21.469 4.68312 21.4728C4.58961 21.5017 4.58705 21.3398 4.57683 21.32C4.49301 21.1678 4.38884 21.1154 4.28038 21.0143C4.2554 20.9907 4.23705 21.0708 4.21106 21.0497C4.07677 20.9394 3.95485 20.8044 3.86793 20.656C3.8488 20.6229 3.91731 20.6092 3.91064 20.5915C3.88163 20.5143 3.78229 20.5742 3.75371 20.4994C3.7477 20.4837 3.79397 20.4583 3.79662 20.4525C3.839 20.3619 3.71536 20.4094 3.70577 20.4015C3.58505 20.306 3.63925 20.1522 3.54782 20.0461C3.53668 20.0331 3.50206 20.1011 3.47396 20.0622C3.28635 19.803 3.14813 19.4864 3.08695 19.1751C3.07736 19.1267 3.13592 19.1419 3.14051 19.1368C3.21255 19.0578 3.08236 19.0721 3.07242 19.0584C2.99789 18.9509 3.06748 18.8106 2.89858 18.7694C2.82568 18.3462 2.72369 17.926 2.77385 17.5C2.78624 17.3952 2.80785 17.2932 2.8414 17.1919C2.8434 17.1854 2.90533 17.2013 2.90906 17.1884C2.95595 17.0351 2.85659 17.0591 2.74949 16.9385C2.72274 16.9073 2.8765 16.845 2.88803 16.8402C2.93023 16.8203 3.019 16.8599 3.02768 16.8525C3.0964 16.7932 2.78873 16.7569 2.80567 16.6584C2.80672 16.6555 2.86049 16.6781 2.8675 16.671C2.88943 16.6491 2.87182 16.6202 2.8958 16.5995C2.95141 16.5521 3.10185 16.5648 3.03531 16.4633C3.02684 16.4502 2.85155 16.4271 2.88071 16.3431C2.89186 16.3098 2.93037 16.1582 2.95451 16.1203C2.97805 16.0821 3.02334 16.1272 3.0266 16.1249C3.13234 16.0374 3.14892 16.0886 3.27135 16.0707C3.3933 16.0546 3.14003 15.9831 3.12012 15.9512C3.1002 15.9191 3.18735 15.8612 3.21476 15.8503C3.2421 15.839 3.26647 15.8756 3.28426 15.8632C3.40137 15.7828 3.18241 15.7662 3.15885 15.7131C3.10463 15.5857 3.3142 15.5949 3.36742 15.5277C3.38205 15.5091 3.33384 15.5069 3.33913 15.4864C3.36124 15.405 3.43733 15.3896 3.43278 15.2811C3.43173 15.2638 3.3674 15.1384 3.46713 15.1388C3.48135 15.1391 3.51328 15.1805 3.54038 15.156C3.58081 15.1195 3.63903 15.046 3.65614 14.9906C3.66881 14.9494 3.57574 14.945 3.62557 14.915C3.64775 14.9018 3.66274 14.9635 3.70099 14.937C3.73888 14.9106 3.80043 14.8201 3.82425 14.7857C3.84776 14.7513 3.78556 14.7332 3.78426 14.7281C3.77761 14.6975 3.80439 14.6147 3.80911 14.609C4.03182 14.3146 4.3402 14.149 4.58895 13.9032C4.60879 13.8839 4.55433 13.8456 4.55694 13.8421C4.61505 13.7615 4.66226 13.9413 4.74816 13.9464C4.66107 13.8496 4.70579 13.8442 4.75044 13.7932C4.77197 13.7686 4.72817 13.7384 4.72743 13.7325C4.72117 13.6422 4.80667 13.7027 4.82503 13.7144C4.89337 13.7571 4.87132 13.6656 4.91713 13.6946C4.96222 13.7235 4.96352 13.8108 5.01422 13.7755C5.0031 13.727 4.89619 13.6522 4.92574 13.6088C5.03844 13.4408 5.39129 13.3548 5.52779 13.305C5.66491 13.2521 5.70597 13.2268 5.79124 13.2104C5.94561 13.1829 5.86087 13.1192 5.93876 13.0472C6.01829 12.9761 6.044 13.2021 6.0723 13.2428C6.09984 13.2839 6.09799 13.2328 6.12168 13.2527C6.14511 13.2726 6.122 13.3141 6.16089 13.312C6.19929 13.3096 6.27372 13.1993 6.27423 13.1476C6.27408 13.0381 6.19698 12.9437 6.31024 12.9538C6.3167 12.9545 6.3124 13.0159 6.33632 13.0158C6.52414 13.0135 6.71041 12.9801 6.8941 12.9959C6.91927 12.9981 6.9059 13.0654 6.92049 13.0675C7.07163 13.0909 7.00624 12.9888 7.07793 12.8596C7.07436 13.0226 7.12769 13.1159 7.23713 13.1102C7.30355 13.1071 7.28814 13.0373 7.33003 12.9858C7.34274 12.9702 7.39199 13.0173 7.39989 12.984C7.42673 12.8751 7.37791 12.7535 7.5 12.801C7.50005 12.801 7.5001 12.8011 7.50015 12.8011C7.50204 12.8019 7.50113 12.8098 7.5 12.8199C7.49851 12.8331 7.49662 12.8501 7.5 12.8595C7.50134 12.8632 7.5035 12.8658 7.50685 12.8665C7.62379 12.8909 7.63986 12.7775 7.7702 12.7702C7.87325 12.7645 8.04566 12.8505 8.15581 12.8781C8.12885 13.0578 8.23552 13.0315 8.30022 12.9158C8.37187 12.9334 8.45106 12.9419 8.51685 12.9745C8.53939 12.9856 8.51209 13.0334 8.51385 13.0397C8.53896 13.1369 8.5971 13.0256 8.61391 13.0248C8.79281 13.0218 8.89766 13.1506 9.08103 13.1203C9.0874 13.1192 9.14012 13.0037 9.1498 13.1059C9.15006 13.1128 9.07942 13.1476 9.14987 13.1789C9.22113 13.2105 9.32634 13.3274 9.4465 13.3194C9.47523 13.3171 9.58025 13.2536 9.59173 13.3493C9.59307 13.3622 9.56992 13.3911 9.56973 13.4136C9.56895 13.4853 9.64375 13.3802 9.62648 13.4938C9.60919 13.6076 9.63446 13.7133 9.76031 13.7011C9.76414 13.7009 9.8373 13.6266 9.86492 13.6454C9.90872 13.6754 9.9602 13.7335 10.0059 13.7635C10.0279 13.7779 10.0492 13.7165 10.0536 13.7181C10.222 13.7904 10.2923 13.9133 10.4214 14.0538C10.4446 14.0792 10.578 14.0819 10.5818 14.1784C10.5847 14.2832 10.3203 14.4557 10.4847 14.5141C10.5484 14.5363 10.8951 14.331 10.8267 14.5595C11.0219 14.7051 11.0701 14.9407 11.2567 15.0985C11.265 15.1055 11.3756 15.0759 11.388 15.0988C11.406 15.1326 11.373 15.1768 11.3838 15.2015C11.4276 15.3057 11.5152 15.3753 11.5581 15.4763C11.5743 15.5145 11.5207 15.5249 11.5392 15.57C11.5573 15.6149 11.6345 15.6157 11.6308 15.6905C11.6277 15.7473 11.5157 15.8474 11.5236 15.9124C11.6548 15.8631 11.6691 15.9059 11.7315 15.9695C11.7436 15.9817 11.7838 15.9494 11.7919 15.9544C11.8259 15.9746 11.797 16.0145 11.8322 16.0331C11.8407 16.0376 11.8861 16.0227 11.8957 16.0257C11.9787 16.051 11.9005 16.1627 11.8862 16.1806C11.8331 16.2516 11.8995 16.2579 11.8833 16.3047C11.8667 16.351 11.8173 16.3022 11.8129 16.3516C11.8037 16.4533 11.8385 16.5709 11.8542 16.6667C11.8608 16.7048 11.9187 16.6672 11.9211 16.6724C11.9521 16.7499 11.8971 16.8406 12.0293 16.8678C11.7104 16.9675 12.0683 16.912 12.0155 17.0381C12.0111 17.048 11.8574 17.0743 11.8312 17.0428C11.805 17.0114 11.8473 16.9542 11.8056 16.9121C11.7959 16.9015 11.6426 16.8608 11.6325 16.8543C11.5542 16.8009 11.7815 16.7525 11.7935 16.7465C11.9223 16.6813 11.7525 16.6321 11.7378 16.6153C11.67 16.5339 11.6833 16.4505 11.6287 16.3842C11.5931 16.3411 11.4452 16.3783 11.4391 16.3406C11.4183 16.2172 11.6035 16.1013 11.3883 16.0499C11.3421 16.0392 11.1964 16.1228 11.2853 15.9909C11.2911 15.983 11.3759 15.8734 11.2902 15.8664C11.2794 15.8656 11.2349 15.885 11.2286 15.8807C11.1872 15.8518 11.2106 15.8096 11.1738 15.7747C11.137 15.74 11.0876 15.702 11.0777 15.6473C11.0718 15.6145 11.1317 15.535 11.1433 15.5102C11.1774 15.4396 11.0626 15.4495 11.1153 15.3868C11.1675 15.3227 11.2987 15.3125 11.3018 15.2199C11.1923 15.2823 11.0781 15.3436 10.9674 15.4057C10.8902 15.2696 10.8355 15.1179 10.7333 14.9951C10.7205 14.9801 10.6794 15.0375 10.6645 15.0227C10.6022 14.9609 10.5899 14.8707 10.5145 14.8149C10.4559 14.7719 10.3511 14.7652 10.2878 14.7272C10.359 14.5939 10.2447 14.5514 10.1944 14.4892C10.1766 14.4672 10.2035 14.4396 10.1967 14.4168C10.1696 14.3317 10.1134 14.4519 10.0849 14.4539C9.96391 14.4642 10.1414 14.236 10.0507 14.1745C10.0456 14.1708 9.89826 14.2524 9.88561 14.2552C9.80148 14.2711 9.90945 14.2062 9.88595 14.1752C9.84289 14.1188 9.82335 14.0606 9.7314 14.0544C9.70411 14.0526 9.60702 14.1044 9.60742 14.018C9.6074 14.0066 9.63654 13.9648 9.63395 13.9598C9.58382 13.872 9.5009 14.0092 9.43284 14.0329C9.36512 14.0568 9.35191 13.9252 9.35199 13.8897C9.35327 13.7979 9.3959 13.8727 9.40147 13.8667C9.46939 13.7939 9.41154 13.7819 9.3761 13.7552C9.44094 13.6123 9.37957 13.5927 9.33893 13.7281C9.33451 13.7428 9.37147 13.7448 9.3761 13.7552C9.27238 13.8751 9.20971 13.8663 9.20181 13.7053C9.19765 13.6299 9.25977 13.5706 9.14927 13.5548C9.09928 13.5481 9.07563 13.655 9.02611 13.6668C8.91426 13.6942 8.83359 13.5587 8.73332 13.5443C8.69767 13.5393 8.71325 13.6059 8.68857 13.6046C8.62355 13.6016 8.58123 13.5437 8.51319 13.5497C8.50711 13.5503 8.50531 13.6137 8.4862 13.6096C8.34129 13.5807 8.22176 13.5166 8.06662 13.4934C7.9917 13.4819 7.85436 13.5019 7.77754 13.4903C7.69095 13.4769 7.59344 13.4335 7.5 13.4119C7.44861 13.3999 7.39975 13.3945 7.35826 13.4037C7.28236 13.4206 7.30233 13.4819 7.27247 13.5256C7.21655 13.6101 7.09757 13.474 7.07913 13.4534C7.07857 13.4526 7.14228 13.4319 7.10448 13.4036C7.07762 13.3398 7.07976 13.4531 7.07913 13.4534C7.06785 13.4394 6.93539 13.4412 6.9115 13.4571C6.89847 13.4656 6.91474 13.5224 6.9079 13.5257C6.74461 13.6028 6.58495 13.6523 6.41086 13.6731C6.40759 13.6728 6.39415 13.6086 6.3866 13.6087C6.28033 13.6089 6.24124 13.7062 6.18039 13.7781C6.11924 13.8502 6.05567 13.8584 5.96706 13.7732C5.91442 13.81 5.81165 13.8014 5.75071 13.797C5.68964 13.7927 5.73918 13.9108 5.73631 13.9149C5.64631 14.0501 5.54247 14.0238 5.40965 14.0912C5.34652 14.1227 5.24065 14.215 5.188 14.2707C5.14638 14.3145 5.09967 14.3122 5.06777 14.361C5.06348 14.3676 5.10423 14.4078 5.10379 14.4109C5.0984 14.5014 5.03519 14.3747 5.00982 14.3631C4.91764 14.3214 4.86291 14.3036 4.82873 14.3886C4.82029 14.4086 4.91224 14.5937 4.89689 14.6235C4.87596 14.6627 4.83907 14.5992 4.81841 14.6422C4.81663 14.6459 4.8474 14.6775 4.82648 14.6947C4.72986 14.775 4.61582 14.8574 4.53348 14.9605C4.52218 14.9744 4.59027 15.0025 4.5751 15.0231C4.50394 15.1197 4.42293 15.221 4.32919 15.2985C4.30592 15.3175 4.27583 15.2747 4.26025 15.2716C4.16486 15.2544 4.24046 15.3726 4.23795 15.3811C4.17416 15.5935 3.99286 15.6831 3.95061 15.9091C3.94801 15.9223 4.03854 16.0585 3.91471 16.0514C3.90654 16.0506 3.77892 16.0448 3.84287 16.1086C3.84694 16.1125 3.91377 16.1111 3.89236 16.1499C3.8708 16.1892 3.88682 16.268 3.80346 16.3046C3.77728 16.3157 3.64795 16.3254 3.72371 16.4085C3.7285 16.4153 3.91449 16.5555 3.76248 16.5479C3.73751 16.5466 3.58485 16.503 3.6474 16.5903C3.65971 16.6068 3.69944 16.5916 3.71315 16.6302C3.73451 16.6888 3.67871 16.7493 3.73688 16.8251C3.74708 16.8388 3.84515 16.9019 3.75905 16.9265C3.74554 16.9304 3.69499 16.9113 3.68616 16.9304C3.64392 17.022 3.66795 17.1269 3.62465 17.2221C3.60947 17.2562 3.5254 17.2326 3.50031 17.2689C3.47516 17.3052 3.45023 17.3809 3.48866 17.4214C3.52708 17.4614 3.66364 17.4212 3.674 17.4781C3.67536 17.4854 3.67662 17.4927 3.6778 17.5C3.71661 17.7362 3.66252 17.9752 3.69553 18.215C3.70065 18.2513 3.74266 18.2126 3.75394 18.2645C3.79376 18.4597 3.93554 18.7632 3.90763 18.9601C3.88486 19.1211 3.75796 18.9815 3.76941 19.0955C3.776 19.152 3.94397 19.1384 3.95351 19.147C4.05046 19.2347 4.02681 19.3407 4.09982 19.4264C4.11487 19.4438 4.15965 19.3928 4.17173 19.4077C4.21334 19.4579 4.2242 19.5306 4.26223 19.58C4.27941 19.6019 4.31764 19.5709 4.32833 19.594C4.35457 19.6489 4.36802 19.7043 4.36617 19.7798C4.3661 19.7868 4.29474 19.7924 4.3202 19.8311C4.36133 19.8932 4.38393 19.9959 4.47565 20.0323C4.50312 20.0431 4.58838 19.9709 4.56544 20.0623C4.56072 20.0813 4.45029 20.1598 4.57982 20.1304C4.60207 20.1266 4.78676 20.0958 4.75033 20.2022C4.7407 20.2303 4.68802 20.3334 4.72258 20.3429C4.72747 20.3439 4.75762 20.2893 4.77983 20.3027C4.85723 20.3505 4.92181 20.4178 5.00351 20.462C5.02529 20.4736 5.03798 20.403 5.06887 20.4215C5.15352 20.4719 5.23968 20.5577 5.3071 20.6286C5.33187 20.6548 5.28243 20.6831 5.28128 20.6892C5.26411 20.7884 5.3546 20.7007 5.3697 20.7022C5.46437 20.7135 5.48876 20.7967 5.56513 20.8237C5.58602 20.8311 5.60213 20.7725 5.60849 20.7702C5.67228 20.7479 5.59114 20.8229 5.61011 20.8471C5.66356 20.9152 5.7457 20.953 5.82207 20.9815C5.85007 20.9918 5.84959 20.916 5.87405 20.9258C6.01921 20.9819 6.16493 21.0473 6.29783 21.1307C6.32293 21.1465 6.28946 21.1907 6.29148 21.2039C6.30631 21.297 6.39984 21.2059 6.41576 21.1991C6.49054 21.169 6.50186 21.22 6.55869 21.2255C6.83389 21.2524 7.16121 21.3251 7.42301 21.3474C7.44899 21.3497 7.47464 21.352 7.5 21.3541C7.80365 21.3785 8.06145 21.3921 8.35559 21.3157C8.37574 21.3104 8.34004 21.2469 8.35694 21.2415C8.57409 21.1748 8.79634 21.1313 8.9987 21.0234C9.01522 21.0146 8.96474 20.9644 8.98996 20.9484C9.04149 20.9153 9.11141 20.8868 9.17574 20.8782C9.20713 20.8739 9.19631 20.9428 9.22771 20.9372C9.30108 20.9241 9.37163 20.8914 9.43011 20.8453C9.45476 20.8256 9.38034 20.7907 9.41455 20.7698C9.64698 20.6251 9.85063 20.4604 10.1154 20.3356C10.1334 20.3271 10.2401 20.4157 10.2525 20.3673C10.2284 20.3376 10.1972 20.3054 10.1699 20.2751C10.4438 19.9809 10.7247 19.6902 10.9253 19.3328C10.9336 19.3179 10.8556 19.3094 10.8711 19.2807C10.9608 19.113 11.0148 18.9406 11.1478 18.7809C11.1608 18.7649 11.2788 18.8166 11.2792 18.7542C11.2794 18.7433 11.29 18.6533 11.2695 18.6238C11.2663 18.6197 11.2046 18.6177 11.2107 18.5906C11.2477 18.4328 11.2977 18.2728 11.3593 18.1171C11.3693 18.0919 11.4279 18.1297 11.4356 18.1115C11.4899 17.9818 11.4563 17.8305 11.5203 17.7031C11.5631 17.6173 11.6716 17.6539 11.7814 17.6078C11.7969 17.6012 11.8003 17.5432 11.8633 17.5406C12.0219 17.5336 12.1951 17.5658 12.3642 17.5552C12.4008 17.5529 12.3618 17.4639 12.4497 17.5168C12.4556 17.5205 12.4842 17.5858 12.5136 17.6027C12.5339 17.6144 12.5985 17.5952 12.6244 17.6191C12.6502 17.6433 12.5958 17.6674 12.6253 17.7072C12.655 17.7474 12.729 17.7329 12.7332 17.8131ZM5.47345 13.787C5.39897 13.7582 5.50262 13.9572 5.5231 13.8846C5.52397 13.8808 5.47719 13.7884 5.47345 13.787ZM10.971 15.0217C11.0117 14.9087 10.8672 14.9591 10.8336 15.0418C10.7989 15.1233 10.9581 15.0554 10.971 15.0217ZM11.3916 15.5836C11.4253 15.4766 11.1372 15.6121 11.231 15.6555C11.2363 15.658 11.3895 15.5898 11.3916 15.5836ZM11.8004 17.8398C11.8035 17.8394 11.8094 17.7978 11.8065 17.7966C11.737 17.7698 11.7253 17.8516 11.8004 17.8398ZM11.7241 16.2101C11.758 16.1732 11.6882 16.1185 11.6469 16.1649C11.6137 16.2016 11.6819 16.2552 11.7241 16.2101ZM3.46718 15.5729C3.46378 15.5722 3.44775 15.599 3.46514 15.6064C3.52108 15.6304 3.52385 15.5847 3.46718 15.5729ZM11.9181 17.4012C11.9253 17.2257 12.1778 17.0902 12.1599 17.2983C12.1563 17.3352 12.0725 17.2231 12.0511 17.271C12.0119 17.356 12.1783 17.4094 12.0902 17.4984C12.0742 17.5134 11.9173 17.4105 11.9177 17.4009C11.9178 17.401 11.9179 17.4011 11.9181 17.4012ZM5.31692 13.5657C5.31452 13.5636 5.27535 13.5824 5.27593 13.5855C5.29105 13.6587 5.36866 13.6215 5.31692 13.5657ZM2.8964 17.3143C2.88972 17.3164 2.88091 17.4192 2.88695 17.4227C3.00195 17.477 3.01975 17.2747 2.8964 17.3143ZM8.1569 12.8832C8.21503 12.819 8.27707 12.8203 8.30002 12.9157C8.25297 12.9027 8.20443 12.8943 8.1569 12.8832Z" fill="#15171C"/>
<path d="M7.63344 16.0854V19H6.93082V16.0854H7.63344ZM8.51021 16.0854V16.6279H6.07407V16.0854H8.51021Z" fill="#15171C"/>
<circle cx="17.5" cy="27.5" r="4.5" fill="white"/>
<path d="M22.7332 27.8131C22.7426 27.9989 22.6934 28.2386 22.6324 28.4138C22.6135 28.4686 22.5796 28.4329 22.5646 28.4699C22.5351 28.5416 22.5392 28.616 22.5039 28.6853C22.4921 28.7081 22.438 28.6635 22.4269 28.6874C22.3668 28.8181 22.3458 28.9506 22.2883 29.0825C22.0048 29.7283 21.6348 30.3113 21.147 30.8075C20.9859 30.9722 20.7473 31.1204 20.5816 31.2864C20.5623 31.306 20.6097 31.3387 20.6085 31.3455C20.5875 31.4519 20.5393 31.3474 20.4882 31.3685C20.2851 31.452 20.0912 31.5755 19.9266 31.6952C19.8564 31.746 19.986 31.7987 19.8793 31.788C19.872 31.7873 19.8625 31.7254 19.8389 31.7314C19.7855 31.7452 19.7011 31.8013 19.6618 31.8155C19.5863 31.8427 19.5748 31.8488 19.5064 31.8798C19.412 31.9216 19.2889 31.9417 19.1908 31.9927C19.1698 32.0037 19.2203 32.0491 19.1883 32.072C19.1563 32.095 19.0594 32.1233 19.0227 32.1202C18.9861 32.1173 18.9852 32.0677 18.9762 32.0593C18.9026 31.9874 18.8313 32.1406 18.8167 32.1477C18.569 32.2726 18.3224 32.2468 18.0738 32.277C17.885 32.3 17.6832 32.3349 17.5 32.3318C17.4985 32.3318 17.497 32.3318 17.4955 32.3318C17.276 32.3269 17.0952 32.2823 16.8853 32.2616C16.8631 32.2593 16.88 32.3328 16.8526 32.33C16.5612 32.2997 16.2742 32.2266 16.0135 32.0921C15.9875 32.0785 16.042 32.0309 16.0175 32.0139C15.8637 31.9116 15.6694 31.6984 15.4612 31.8982C15.3562 31.8382 15.2306 31.7609 15.1647 31.6609C15.1225 31.5966 15.2135 31.5709 15.1274 31.5543C15.108 31.5504 15.099 31.6139 15.0719 31.6039C14.9574 31.5614 14.858 31.4741 14.7431 31.4307C14.7196 31.4219 14.6943 31.469 14.6831 31.4728C14.5896 31.5017 14.5871 31.3398 14.5768 31.32C14.493 31.1678 14.3888 31.1154 14.2804 31.0143C14.2554 30.9907 14.2371 31.0708 14.2111 31.0497C14.0768 30.9394 13.9549 30.8044 13.8679 30.656C13.8488 30.6229 13.9173 30.6092 13.9106 30.5915C13.8816 30.5143 13.7823 30.5742 13.7537 30.4994C13.7477 30.4837 13.794 30.4583 13.7966 30.4525C13.839 30.3619 13.7154 30.4094 13.7058 30.4015C13.5851 30.306 13.6393 30.1522 13.5478 30.0461C13.5367 30.0331 13.5021 30.1011 13.474 30.0622C13.2863 29.803 13.1481 29.4864 13.087 29.1751C13.0774 29.1267 13.1359 29.1419 13.1405 29.1368C13.2126 29.0578 13.0824 29.0721 13.0724 29.0584C12.9979 28.9509 13.0675 28.8106 12.8986 28.7694C12.8257 28.3462 12.7237 27.926 12.7738 27.5C12.7862 27.3952 12.8078 27.2932 12.8414 27.1919C12.8434 27.1854 12.9053 27.2013 12.9091 27.1884C12.956 27.0351 12.8566 27.0591 12.7495 26.9385C12.7227 26.9073 12.8765 26.845 12.888 26.8402C12.9302 26.8203 13.019 26.8599 13.0277 26.8525C13.0964 26.7932 12.7887 26.7569 12.8057 26.6584C12.8067 26.6555 12.8605 26.6781 12.8675 26.671C12.8894 26.6491 12.8718 26.6202 12.8958 26.5995C12.9514 26.5521 13.1019 26.5648 13.0353 26.4633C13.0268 26.4502 12.8516 26.4271 12.8807 26.3431C12.8919 26.3098 12.9304 26.1582 12.9545 26.1203C12.978 26.0821 13.0233 26.1272 13.0266 26.1249C13.1323 26.0374 13.1489 26.0886 13.2713 26.0707C13.3933 26.0546 13.14 25.9831 13.1201 25.9512C13.1002 25.9191 13.1874 25.8612 13.2148 25.8503C13.2421 25.839 13.2665 25.8756 13.2843 25.8632C13.4014 25.7828 13.1824 25.7662 13.1589 25.7131C13.1046 25.5857 13.3142 25.5949 13.3674 25.5277C13.3821 25.5091 13.3338 25.5069 13.3391 25.4864C13.3612 25.405 13.4373 25.3896 13.4328 25.2811C13.4317 25.2638 13.3674 25.1384 13.4671 25.1388C13.4814 25.1391 13.5133 25.1805 13.5404 25.156C13.5808 25.1195 13.639 25.046 13.6561 24.9906C13.6688 24.9494 13.5757 24.945 13.6256 24.915C13.6478 24.9018 13.6627 24.9635 13.701 24.937C13.7389 24.9106 13.8004 24.8201 13.8243 24.7857C13.8478 24.7513 13.7856 24.7332 13.7843 24.7281C13.7776 24.6975 13.8044 24.6147 13.8091 24.609C14.0318 24.3146 14.3402 24.149 14.5889 23.9032C14.6088 23.8839 14.5543 23.8456 14.5569 23.8421C14.6151 23.7615 14.6623 23.9413 14.7482 23.9464C14.6611 23.8496 14.7058 23.8442 14.7504 23.7932C14.772 23.7686 14.7282 23.7384 14.7274 23.7325C14.7212 23.6422 14.8067 23.7027 14.825 23.7144C14.8934 23.7571 14.8713 23.6656 14.9171 23.6946C14.9622 23.7235 14.9635 23.8108 15.0142 23.7755C15.0031 23.727 14.8962 23.6522 14.9257 23.6088C15.0384 23.4408 15.3913 23.3548 15.5278 23.305C15.6649 23.2521 15.706 23.2268 15.7912 23.2104C15.9456 23.1829 15.8609 23.1192 15.9388 23.0472C16.0183 22.9761 16.044 23.2021 16.0723 23.2428C16.0998 23.2839 16.098 23.2328 16.1217 23.2527C16.1451 23.2726 16.122 23.3141 16.1609 23.312C16.1993 23.3096 16.2737 23.1993 16.2742 23.1476C16.2741 23.0381 16.197 22.9437 16.3102 22.9538C16.3167 22.9545 16.3124 23.0159 16.3363 23.0158C16.5241 23.0135 16.7104 22.9801 16.8941 22.9959C16.9193 22.9981 16.9059 23.0654 16.9205 23.0675C17.0716 23.0909 17.0062 22.9888 17.0779 22.8596C17.0744 23.0226 17.1277 23.1159 17.2371 23.1102C17.3036 23.1071 17.2881 23.0373 17.33 22.9858C17.3427 22.9702 17.392 23.0173 17.3999 22.984C17.4267 22.8751 17.3779 22.7535 17.5 22.801C17.5001 22.801 17.5001 22.8011 17.5002 22.8011C17.502 22.8019 17.5011 22.8098 17.5 22.8199C17.4985 22.8331 17.4966 22.8501 17.5 22.8595C17.5013 22.8632 17.5035 22.8658 17.5068 22.8665C17.6238 22.8909 17.6399 22.7775 17.7702 22.7702C17.8732 22.7645 18.0457 22.8505 18.1558 22.8781C18.1289 23.0578 18.2355 23.0315 18.3002 22.9158C18.3719 22.9334 18.4511 22.9419 18.5169 22.9745C18.5394 22.9856 18.5121 23.0334 18.5138 23.0397C18.539 23.1369 18.5971 23.0256 18.6139 23.0248C18.7928 23.0218 18.8977 23.1506 19.081 23.1203C19.0874 23.1192 19.1401 23.0037 19.1498 23.1059C19.1501 23.1128 19.0794 23.1476 19.1499 23.1789C19.2211 23.2105 19.3263 23.3274 19.4465 23.3194C19.4752 23.3171 19.5803 23.2536 19.5917 23.3493C19.5931 23.3622 19.5699 23.3911 19.5697 23.4136C19.569 23.4853 19.6438 23.3802 19.6265 23.4938C19.6092 23.6076 19.6345 23.7133 19.7603 23.7011C19.7641 23.7009 19.8373 23.6266 19.8649 23.6454C19.9087 23.6754 19.9602 23.7335 20.0059 23.7635C20.0279 23.7779 20.0492 23.7165 20.0536 23.7181C20.222 23.7904 20.2923 23.9133 20.4214 24.0538C20.4446 24.0792 20.578 24.0819 20.5818 24.1784C20.5847 24.2832 20.3203 24.4557 20.4847 24.5141C20.5484 24.5363 20.8951 24.331 20.8267 24.5595C21.0219 24.7051 21.0701 24.9407 21.2567 25.0985C21.265 25.1055 21.3756 25.0759 21.388 25.0988C21.406 25.1326 21.373 25.1768 21.3838 25.2015C21.4276 25.3057 21.5152 25.3753 21.5581 25.4763C21.5743 25.5145 21.5207 25.5249 21.5392 25.57C21.5573 25.6149 21.6345 25.6157 21.6308 25.6905C21.6277 25.7473 21.5157 25.8474 21.5236 25.9124C21.6548 25.8631 21.6691 25.9059 21.7315 25.9695C21.7436 25.9817 21.7838 25.9494 21.7919 25.9544C21.8259 25.9746 21.797 26.0145 21.8322 26.0331C21.8407 26.0376 21.8861 26.0227 21.8957 26.0257C21.9787 26.051 21.9005 26.1627 21.8862 26.1806C21.8331 26.2516 21.8995 26.2579 21.8833 26.3047C21.8667 26.351 21.8173 26.3022 21.8129 26.3516C21.8037 26.4533 21.8385 26.5709 21.8542 26.6667C21.8608 26.7048 21.9187 26.6672 21.9211 26.6724C21.9521 26.7499 21.8971 26.8406 22.0293 26.8678C21.7104 26.9675 22.0683 26.912 22.0155 27.0381C22.0111 27.048 21.8574 27.0743 21.8312 27.0428C21.805 27.0114 21.8473 26.9542 21.8056 26.9121C21.7959 26.9015 21.6426 26.8608 21.6325 26.8543C21.5542 26.8009 21.7815 26.7525 21.7935 26.7465C21.9223 26.6813 21.7525 26.6321 21.7378 26.6153C21.67 26.5339 21.6833 26.4505 21.6287 26.3842C21.5931 26.3411 21.4452 26.3783 21.4391 26.3406C21.4183 26.2172 21.6035 26.1013 21.3883 26.0499C21.3421 26.0392 21.1964 26.1228 21.2853 25.9909C21.2911 25.983 21.3759 25.8734 21.2902 25.8664C21.2794 25.8656 21.2349 25.885 21.2286 25.8807C21.1872 25.8518 21.2106 25.8096 21.1738 25.7747C21.137 25.74 21.0876 25.702 21.0777 25.6473C21.0718 25.6145 21.1317 25.535 21.1433 25.5102C21.1774 25.4396 21.0626 25.4495 21.1153 25.3868C21.1675 25.3227 21.2987 25.3125 21.3018 25.2199C21.1923 25.2823 21.0781 25.3436 20.9674 25.4057C20.8902 25.2696 20.8355 25.1179 20.7333 24.9951C20.7205 24.9801 20.6794 25.0375 20.6645 25.0227C20.6022 24.9609 20.5899 24.8707 20.5145 24.8149C20.4559 24.7719 20.3511 24.7652 20.2878 24.7272C20.359 24.5939 20.2447 24.5514 20.1944 24.4892C20.1766 24.4672 20.2035 24.4396 20.1967 24.4168C20.1696 24.3317 20.1134 24.4519 20.0849 24.4539C19.9639 24.4642 20.1414 24.236 20.0507 24.1745C20.0456 24.1708 19.8983 24.2524 19.8856 24.2552C19.8015 24.2711 19.9094 24.2062 19.886 24.1752C19.8429 24.1188 19.8234 24.0606 19.7314 24.0544C19.7041 24.0526 19.607 24.1044 19.6074 24.018C19.6074 24.0066 19.6365 23.9648 19.6339 23.9598C19.5838 23.872 19.5009 24.0092 19.4328 24.0329C19.3651 24.0568 19.3519 23.9252 19.352 23.8897C19.3533 23.7979 19.3959 23.8727 19.4015 23.8667C19.4694 23.7939 19.4115 23.7819 19.3761 23.7552C19.4409 23.6123 19.3796 23.5927 19.3389 23.7281C19.3345 23.7428 19.3715 23.7448 19.3761 23.7552C19.2724 23.8751 19.2097 23.8663 19.2018 23.7053C19.1976 23.6299 19.2598 23.5706 19.1493 23.5548C19.0993 23.5481 19.0756 23.655 19.0261 23.6668C18.9143 23.6942 18.8336 23.5587 18.7333 23.5443C18.6977 23.5393 18.7133 23.6059 18.6886 23.6046C18.6235 23.6016 18.5812 23.5437 18.5132 23.5497C18.5071 23.5503 18.5053 23.6137 18.4862 23.6096C18.3413 23.5807 18.2218 23.5166 18.0666 23.4934C17.9917 23.4819 17.8544 23.5019 17.7775 23.4903C17.6909 23.4769 17.5934 23.4335 17.5 23.4119C17.4486 23.3999 17.3998 23.3945 17.3583 23.4037C17.2824 23.4206 17.3023 23.4819 17.2725 23.5256C17.2166 23.6101 17.0976 23.474 17.0791 23.4534C17.0786 23.4526 17.1423 23.4319 17.1045 23.4036C17.0776 23.3398 17.0798 23.4531 17.0791 23.4534C17.0679 23.4394 16.9354 23.4412 16.9115 23.4571C16.8985 23.4656 16.9147 23.5224 16.9079 23.5257C16.7446 23.6028 16.585 23.6523 16.4109 23.6731C16.4076 23.6728 16.3941 23.6086 16.3866 23.6087C16.2803 23.6089 16.2412 23.7062 16.1804 23.7781C16.1192 23.8502 16.0557 23.8584 15.9671 23.7732C15.9144 23.81 15.8116 23.8014 15.7507 23.797C15.6896 23.7927 15.7392 23.9108 15.7363 23.9149C15.6463 24.0501 15.5425 24.0238 15.4097 24.0912C15.3465 24.1227 15.2407 24.215 15.188 24.2707C15.1464 24.3145 15.0997 24.3122 15.0678 24.361C15.0635 24.3676 15.1042 24.4078 15.1038 24.4109C15.0984 24.5014 15.0352 24.3747 15.0098 24.3631C14.9176 24.3214 14.8629 24.3036 14.8287 24.3886C14.8203 24.4086 14.9122 24.5937 14.8969 24.6235C14.876 24.6627 14.8391 24.5992 14.8184 24.6422C14.8166 24.6459 14.8474 24.6775 14.8265 24.6947C14.7299 24.775 14.6158 24.8574 14.5335 24.9605C14.5222 24.9744 14.5903 25.0025 14.5751 25.0231C14.5039 25.1197 14.4229 25.221 14.3292 25.2985C14.3059 25.3175 14.2758 25.2747 14.2602 25.2716C14.1649 25.2544 14.2405 25.3726 14.238 25.3811C14.1742 25.5935 13.9929 25.6831 13.9506 25.9091C13.948 25.9223 14.0385 26.0585 13.9147 26.0514C13.9065 26.0506 13.7789 26.0448 13.8429 26.1086C13.8469 26.1125 13.9138 26.1111 13.8924 26.1499C13.8708 26.1892 13.8868 26.268 13.8035 26.3046C13.7773 26.3157 13.6479 26.3254 13.7237 26.4085C13.7285 26.4153 13.9145 26.5555 13.7625 26.5479C13.7375 26.5466 13.5848 26.503 13.6474 26.5903C13.6597 26.6068 13.6994 26.5916 13.7131 26.6302C13.7345 26.6888 13.6787 26.7493 13.7369 26.8251C13.7471 26.8388 13.8451 26.9019 13.759 26.9265C13.7455 26.9304 13.695 26.9113 13.6862 26.9304C13.6439 27.022 13.668 27.1269 13.6247 27.2221C13.6095 27.2562 13.5254 27.2326 13.5003 27.2689C13.4752 27.3052 13.4502 27.3809 13.4887 27.4214C13.5271 27.4614 13.6636 27.4212 13.674 27.4781C13.6754 27.4854 13.6766 27.4927 13.6778 27.5C13.7166 27.7362 13.6625 27.9752 13.6955 28.215C13.7006 28.2513 13.7427 28.2126 13.7539 28.2645C13.7938 28.4597 13.9355 28.7632 13.9076 28.9601C13.8849 29.1211 13.758 28.9815 13.7694 29.0955C13.776 29.152 13.944 29.1384 13.9535 29.147C14.0505 29.2347 14.0268 29.3407 14.0998 29.4264C14.1149 29.4438 14.1596 29.3928 14.1717 29.4077C14.2133 29.4579 14.2242 29.5306 14.2622 29.58C14.2794 29.6019 14.3176 29.5709 14.3283 29.594C14.3546 29.6489 14.368 29.7043 14.3662 29.7798C14.3661 29.7868 14.2947 29.7924 14.3202 29.8311C14.3613 29.8932 14.3839 29.9959 14.4757 30.0323C14.5031 30.0431 14.5884 29.9709 14.5654 30.0623C14.5607 30.0813 14.4503 30.1598 14.5798 30.1304C14.6021 30.1266 14.7868 30.0958 14.7503 30.2022C14.7407 30.2303 14.688 30.3334 14.7226 30.3429C14.7275 30.3439 14.7576 30.2893 14.7798 30.3027C14.8572 30.3505 14.9218 30.4178 15.0035 30.462C15.0253 30.4736 15.038 30.403 15.0689 30.4215C15.1535 30.4719 15.2397 30.5577 15.3071 30.6286C15.3319 30.6548 15.2824 30.6831 15.2813 30.6892C15.2641 30.7884 15.3546 30.7007 15.3697 30.7022C15.4644 30.7135 15.4888 30.7967 15.5651 30.8237C15.586 30.8311 15.6021 30.7725 15.6085 30.7702C15.6723 30.7479 15.5911 30.8229 15.6101 30.8471C15.6636 30.9152 15.7457 30.953 15.8221 30.9815C15.8501 30.9918 15.8496 30.916 15.8741 30.9258C16.0192 30.9819 16.1649 31.0473 16.2978 31.1307C16.3229 31.1465 16.2895 31.1907 16.2915 31.2039C16.3063 31.297 16.3998 31.2059 16.4158 31.1991C16.4905 31.169 16.5019 31.22 16.5587 31.2255C16.8339 31.2524 17.1612 31.3251 17.423 31.3474C17.449 31.3497 17.4746 31.352 17.5 31.3541C17.8037 31.3785 18.0615 31.3921 18.3556 31.3157C18.3757 31.3104 18.34 31.2469 18.3569 31.2415C18.5741 31.1748 18.7963 31.1313 18.9987 31.0234C19.0152 31.0146 18.9647 30.9644 18.99 30.9484C19.0415 30.9153 19.1114 30.8868 19.1757 30.8782C19.2071 30.8739 19.1963 30.9428 19.2277 30.9372C19.3011 30.9241 19.3716 30.8914 19.4301 30.8453C19.4548 30.8256 19.3803 30.7907 19.4146 30.7698C19.647 30.6251 19.8506 30.4604 20.1154 30.3356C20.1334 30.3271 20.2401 30.4157 20.2525 30.3673C20.2284 30.3376 20.1972 30.3054 20.1699 30.2751C20.4438 29.9809 20.7247 29.6902 20.9253 29.3328C20.9336 29.3179 20.8556 29.3094 20.8711 29.2807C20.9608 29.113 21.0148 28.9406 21.1478 28.7809C21.1608 28.7649 21.2788 28.8166 21.2792 28.7542C21.2794 28.7433 21.29 28.6533 21.2695 28.6238C21.2663 28.6197 21.2046 28.6177 21.2107 28.5906C21.2477 28.4328 21.2977 28.2728 21.3593 28.1171C21.3693 28.0919 21.4279 28.1297 21.4356 28.1115C21.4899 27.9818 21.4563 27.8305 21.5203 27.7031C21.5631 27.6173 21.6716 27.6539 21.7814 27.6078C21.7969 27.6012 21.8003 27.5432 21.8633 27.5406C22.0219 27.5336 22.1951 27.5658 22.3642 27.5552C22.4008 27.5529 22.3618 27.4639 22.4497 27.5168C22.4556 27.5205 22.4842 27.5858 22.5136 27.6027C22.5339 27.6144 22.5985 27.5952 22.6244 27.6191C22.6502 27.6433 22.5958 27.6674 22.6253 27.7072C22.655 27.7474 22.729 27.7329 22.7332 27.8131ZM15.4735 23.787C15.399 23.7582 15.5026 23.9572 15.5231 23.8846C15.524 23.8808 15.4772 23.7884 15.4735 23.787ZM20.971 25.0217C21.0117 24.9087 20.8672 24.9591 20.8336 25.0418C20.7989 25.1233 20.9581 25.0554 20.971 25.0217ZM21.3916 25.5836C21.4253 25.4766 21.1372 25.6121 21.231 25.6555C21.2363 25.658 21.3895 25.5898 21.3916 25.5836ZM21.8004 27.8398C21.8035 27.8394 21.8094 27.7978 21.8065 27.7966C21.737 27.7698 21.7253 27.8516 21.8004 27.8398ZM21.7241 26.2101C21.758 26.1732 21.6882 26.1185 21.6469 26.1649C21.6137 26.2016 21.6819 26.2552 21.7241 26.2101ZM13.4672 25.5729C13.4638 25.5722 13.4477 25.599 13.4651 25.6064C13.5211 25.6304 13.5238 25.5847 13.4672 25.5729ZM21.9181 27.4012C21.9253 27.2257 22.1778 27.0902 22.1599 27.2983C22.1563 27.3352 22.0725 27.2231 22.0511 27.271C22.0119 27.356 22.1783 27.4094 22.0902 27.4984C22.0742 27.5134 21.9173 27.4105 21.9177 27.4009C21.9178 27.401 21.9179 27.4011 21.9181 27.4012ZM15.3169 23.5657C15.3145 23.5636 15.2754 23.5824 15.2759 23.5855C15.291 23.6587 15.3687 23.6215 15.3169 23.5657ZM12.8964 27.3143C12.8897 27.3164 12.8809 27.4192 12.887 27.4227C13.002 27.477 13.0198 27.2747 12.8964 27.3143ZM18.1569 22.8832C18.215 22.819 18.2771 22.8203 18.3 22.9157C18.253 22.9027 18.2044 22.8943 18.1569 22.8832Z" fill="#15171C"/>
<circle cx="25.5" cy="12.5" r="4.5" fill="white"/>
<path d="M30.7332 12.8131C30.7426 12.9989 30.6934 13.2386 30.6324 13.4138C30.6135 13.4686 30.5796 13.4329 30.5646 13.4699C30.5351 13.5416 30.5392 13.616 30.5039 13.6853C30.4921 13.7081 30.438 13.6635 30.4269 13.6874C30.3668 13.8181 30.3458 13.9506 30.2883 14.0825C30.0048 14.7283 29.6348 15.3113 29.147 15.8075C28.9859 15.9722 28.7473 16.1204 28.5816 16.2864C28.5623 16.306 28.6097 16.3387 28.6085 16.3455C28.5875 16.4519 28.5393 16.3474 28.4882 16.3685C28.2851 16.452 28.0912 16.5755 27.9266 16.6952C27.8564 16.746 27.986 16.7987 27.8793 16.788C27.872 16.7873 27.8625 16.7254 27.8389 16.7314C27.7855 16.7452 27.7011 16.8013 27.6618 16.8155C27.5863 16.8427 27.5748 16.8488 27.5064 16.8798C27.412 16.9216 27.2889 16.9417 27.1908 16.9927C27.1698 17.0037 27.2203 17.0491 27.1883 17.072C27.1563 17.095 27.0594 17.1233 27.0227 17.1202C26.9861 17.1173 26.9852 17.0677 26.9762 17.0593C26.9026 16.9874 26.8313 17.1406 26.8167 17.1477C26.569 17.2726 26.3224 17.2468 26.0738 17.277C25.885 17.3 25.6832 17.3349 25.5 17.3318C25.4985 17.3318 25.497 17.3318 25.4955 17.3318C25.276 17.3269 25.0952 17.2823 24.8853 17.2616C24.8631 17.2593 24.88 17.3328 24.8526 17.33C24.5612 17.2997 24.2742 17.2266 24.0135 17.0921C23.9875 17.0785 24.042 17.0309 24.0175 17.0139C23.8637 16.9116 23.6694 16.6984 23.4612 16.8982C23.3562 16.8382 23.2306 16.7609 23.1647 16.6609C23.1225 16.5966 23.2135 16.5709 23.1274 16.5543C23.108 16.5504 23.099 16.6139 23.0719 16.6039C22.9574 16.5614 22.858 16.4741 22.7431 16.4307C22.7196 16.4219 22.6943 16.469 22.6831 16.4728C22.5896 16.5017 22.5871 16.3398 22.5768 16.32C22.493 16.1678 22.3888 16.1154 22.2804 16.0143C22.2554 15.9907 22.2371 16.0708 22.2111 16.0497C22.0768 15.9394 21.9549 15.8044 21.8679 15.656C21.8488 15.6229 21.9173 15.6092 21.9106 15.5915C21.8816 15.5143 21.7823 15.5742 21.7537 15.4994C21.7477 15.4837 21.794 15.4583 21.7966 15.4525C21.839 15.3619 21.7154 15.4094 21.7058 15.4015C21.5851 15.306 21.6393 15.1522 21.5478 15.0461C21.5367 15.0331 21.5021 15.1011 21.474 15.0622C21.2863 14.803 21.1481 14.4864 21.087 14.1751C21.0774 14.1267 21.1359 14.1419 21.1405 14.1368C21.2126 14.0578 21.0824 14.0721 21.0724 14.0584C20.9979 13.9509 21.0675 13.8106 20.8986 13.7694C20.8257 13.3462 20.7237 12.926 20.7738 12.5C20.7862 12.3952 20.8078 12.2932 20.8414 12.1919C20.8434 12.1854 20.9053 12.2013 20.9091 12.1884C20.956 12.0351 20.8566 12.0591 20.7495 11.9385C20.7227 11.9073 20.8765 11.845 20.888 11.8402C20.9302 11.8203 21.019 11.8599 21.0277 11.8525C21.0964 11.7932 20.7887 11.7569 20.8057 11.6584C20.8067 11.6555 20.8605 11.6781 20.8675 11.671C20.8894 11.6491 20.8718 11.6202 20.8958 11.5995C20.9514 11.5521 21.1019 11.5648 21.0353 11.4633C21.0268 11.4502 20.8516 11.4271 20.8807 11.3431C20.8919 11.3098 20.9304 11.1582 20.9545 11.1203C20.978 11.0821 21.0233 11.1272 21.0266 11.1249C21.1323 11.0374 21.1489 11.0886 21.2713 11.0707C21.3933 11.0546 21.14 10.9831 21.1201 10.9512C21.1002 10.9191 21.1874 10.8612 21.2148 10.8503C21.2421 10.839 21.2665 10.8756 21.2843 10.8632C21.4014 10.7828 21.1824 10.7662 21.1589 10.7131C21.1046 10.5857 21.3142 10.5949 21.3674 10.5277C21.3821 10.5091 21.3338 10.5069 21.3391 10.4864C21.3612 10.405 21.4373 10.3896 21.4328 10.2811C21.4317 10.2638 21.3674 10.1384 21.4671 10.1388C21.4814 10.1391 21.5133 10.1805 21.5404 10.156C21.5808 10.1195 21.639 10.046 21.6561 9.99055C21.6688 9.94945 21.5757 9.94504 21.6256 9.91496C21.6478 9.90182 21.6627 9.96348 21.701 9.93699C21.7389 9.91059 21.8004 9.82006 21.8243 9.78572C21.8478 9.75131 21.7856 9.73323 21.7843 9.7281C21.7776 9.69751 21.8044 9.61468 21.8091 9.60905C22.0318 9.31455 22.3402 9.14905 22.5889 8.90323C22.6088 8.8839 22.5543 8.84558 22.5569 8.84211C22.6151 8.7615 22.6623 8.94132 22.7482 8.94641C22.6611 8.84961 22.7058 8.84417 22.7504 8.79319C22.772 8.76857 22.7282 8.73841 22.7274 8.73254C22.7212 8.64223 22.8067 8.70272 22.825 8.71445C22.8934 8.75705 22.8713 8.66565 22.9171 8.69455C22.9622 8.72355 22.9635 8.81077 23.0142 8.7755C23.0031 8.727 22.8962 8.65219 22.9257 8.60882C23.0384 8.44079 23.3913 8.35484 23.5278 8.30504C23.6649 8.25214 23.706 8.22681 23.7912 8.21037C23.9456 8.18292 23.8609 8.11919 23.9388 8.04722C24.0183 7.97611 24.044 8.20212 24.0723 8.24281C24.0998 8.28387 24.098 8.23278 24.1217 8.25265C24.1451 8.27263 24.122 8.31415 24.1609 8.31197C24.1993 8.30964 24.2737 8.19926 24.2742 8.14759C24.2741 8.03808 24.197 7.9437 24.3102 7.95382C24.3167 7.95453 24.3124 8.01594 24.3363 8.01581C24.5241 8.01346 24.7104 7.98015 24.8941 7.99585C24.9193 7.99814 24.9059 8.06536 24.9205 8.06746C25.0716 8.09094 25.0062 7.98882 25.0779 7.85959C25.0744 8.02263 25.1277 8.11595 25.2371 8.1102C25.3036 8.10715 25.2881 8.03733 25.33 7.98577C25.3427 7.9702 25.392 8.01734 25.3999 7.98399C25.4267 7.87505 25.3779 7.75346 25.5 7.80102C25.5001 7.80104 25.5001 7.80106 25.5002 7.80108C25.502 7.80189 25.5011 7.80981 25.5 7.81988C25.4985 7.83312 25.4966 7.85009 25.5 7.85951C25.5013 7.86324 25.5035 7.86579 25.5068 7.86646C25.6238 7.89094 25.6399 7.77747 25.7702 7.77021C25.8732 7.76449 26.0457 7.85047 26.1558 7.87812C26.1289 8.05783 26.2355 8.03152 26.3002 7.9158C26.3719 7.93339 26.4511 7.94194 26.5169 7.97447C26.5394 7.9856 26.5121 8.03344 26.5138 8.03967C26.539 8.13689 26.5971 8.0256 26.6139 8.02483C26.7928 8.02175 26.8977 8.15058 27.081 8.12034C27.0874 8.11922 27.1401 8.00374 27.1498 8.10587C27.1501 8.11278 27.0794 8.14758 27.1499 8.17893C27.2211 8.2105 27.3263 8.32742 27.4465 8.31938C27.4752 8.31714 27.5803 8.2536 27.5917 8.34929C27.5931 8.36216 27.5699 8.39106 27.5697 8.41357C27.569 8.48528 27.6438 8.38017 27.6265 8.49382C27.6092 8.60758 27.6345 8.71325 27.7603 8.70112C27.7641 8.70087 27.8373 8.62659 27.8649 8.64544C27.9087 8.67536 27.9602 8.73348 28.0059 8.76354C28.0279 8.77792 28.0492 8.71646 28.0536 8.71806C28.222 8.79041 28.2923 8.91334 28.4214 9.05381C28.4446 9.07921 28.578 9.08193 28.5818 9.17836C28.5847 9.28321 28.3203 9.45573 28.4847 9.51409C28.5484 9.53625 28.8951 9.33096 28.8267 9.55952C29.0219 9.70509 29.0701 9.94066 29.2567 10.0985C29.265 10.1055 29.3756 10.0759 29.388 10.0988C29.406 10.1326 29.373 10.1768 29.3838 10.2015C29.4276 10.3057 29.5152 10.3753 29.5581 10.4763C29.5743 10.5145 29.5207 10.5249 29.5392 10.57C29.5573 10.6149 29.6345 10.6157 29.6308 10.6905C29.6277 10.7473 29.5157 10.8474 29.5236 10.9124C29.6548 10.8631 29.6691 10.9059 29.7315 10.9695C29.7436 10.9817 29.7838 10.9494 29.7919 10.9544C29.8259 10.9746 29.797 11.0145 29.8322 11.0331C29.8407 11.0376 29.8861 11.0227 29.8957 11.0257C29.9787 11.051 29.9005 11.1627 29.8862 11.1806C29.8331 11.2516 29.8995 11.2579 29.8833 11.3047C29.8667 11.351 29.8173 11.3022 29.8129 11.3516C29.8037 11.4533 29.8385 11.5709 29.8542 11.6667C29.8608 11.7048 29.9187 11.6672 29.9211 11.6724C29.9521 11.7499 29.8971 11.8406 30.0293 11.8678C29.7104 11.9675 30.0683 11.912 30.0155 12.0381C30.0111 12.048 29.8574 12.0743 29.8312 12.0428C29.805 12.0114 29.8473 11.9542 29.8056 11.9121C29.7959 11.9015 29.6426 11.8608 29.6325 11.8543C29.5542 11.8009 29.7815 11.7525 29.7935 11.7465C29.9223 11.6813 29.7525 11.6321 29.7378 11.6153C29.67 11.5339 29.6833 11.4505 29.6287 11.3842C29.5931 11.3411 29.4452 11.3783 29.4391 11.3406C29.4183 11.2172 29.6035 11.1013 29.3883 11.0499C29.3421 11.0392 29.1964 11.1228 29.2853 10.9909C29.2911 10.983 29.3759 10.8734 29.2902 10.8664C29.2794 10.8656 29.2349 10.885 29.2286 10.8807C29.1872 10.8518 29.2106 10.8096 29.1738 10.7747C29.137 10.74 29.0876 10.702 29.0777 10.6473C29.0718 10.6145 29.1317 10.535 29.1433 10.5102C29.1774 10.4396 29.0626 10.4495 29.1153 10.3868C29.1675 10.3227 29.2987 10.3125 29.3018 10.2199C29.1923 10.2823 29.0781 10.3436 28.9674 10.4057C28.8902 10.2696 28.8355 10.1179 28.7333 9.99512C28.7205 9.98008 28.6794 10.0375 28.6645 10.0227C28.6022 9.96087 28.5899 9.87069 28.5145 9.81488C28.4559 9.7719 28.3511 9.76523 28.2878 9.72724C28.359 9.59387 28.2447 9.55137 28.1944 9.48917C28.1766 9.46718 28.2035 9.43958 28.1967 9.41684C28.1696 9.33174 28.1134 9.45193 28.0849 9.4539C27.9639 9.46416 28.1414 9.23602 28.0507 9.17455C28.0456 9.1708 27.8983 9.25241 27.8856 9.25518C27.8015 9.27106 27.9094 9.20619 27.886 9.17515C27.8429 9.11879 27.8234 9.06061 27.7314 9.05444C27.7041 9.05257 27.607 9.10442 27.6074 9.01802C27.6074 9.00665 27.6365 8.96485 27.6339 8.9598C27.5838 8.87196 27.5009 9.00918 27.4328 9.03285C27.3651 9.05675 27.3519 8.92524 27.352 8.88967C27.3533 8.79792 27.3959 8.87272 27.4015 8.86668C27.4694 8.79393 27.4115 8.78195 27.3761 8.75518C27.4409 8.61231 27.3796 8.59268 27.3389 8.72809C27.3345 8.74285 27.3715 8.7448 27.3761 8.75518C27.2724 8.87509 27.2097 8.86626 27.2018 8.70527C27.1976 8.6299 27.2598 8.57063 27.1493 8.55485C27.0993 8.54814 27.0756 8.65504 27.0261 8.66682C26.9143 8.69419 26.8336 8.55872 26.7333 8.54433C26.6977 8.53933 26.7133 8.60592 26.6886 8.60459C26.6235 8.60157 26.5812 8.5437 26.5132 8.54969C26.5071 8.55034 26.5053 8.61365 26.4862 8.60961C26.3413 8.58071 26.2218 8.51659 26.0666 8.49343C25.9917 8.48193 25.8544 8.50185 25.7775 8.49027C25.6909 8.47687 25.5934 8.43347 25.5 8.41189C25.4486 8.39991 25.3998 8.39451 25.3583 8.4037C25.2824 8.42057 25.3023 8.4819 25.2725 8.5256C25.2166 8.61008 25.0976 8.47405 25.0791 8.45344C25.0786 8.45264 25.1423 8.43195 25.1045 8.40365C25.0776 8.33979 25.0798 8.4531 25.0791 8.45344C25.0679 8.43938 24.9354 8.44117 24.9115 8.45715C24.8985 8.46556 24.9147 8.52239 24.9079 8.52568C24.7446 8.60284 24.585 8.65227 24.4109 8.67315C24.4076 8.67285 24.3941 8.60855 24.3866 8.60866C24.2803 8.60895 24.2412 8.70619 24.1804 8.77805C24.1192 8.85024 24.0557 8.85839 23.9671 8.77321C23.9144 8.80996 23.8116 8.80135 23.7507 8.79703C23.6896 8.79268 23.7392 8.91075 23.7363 8.91491C23.6463 9.05007 23.5425 9.02379 23.4097 9.09116C23.3465 9.1227 23.2407 9.21505 23.188 9.27072C23.1464 9.31452 23.0997 9.3122 23.0678 9.36102C23.0635 9.36759 23.1042 9.40784 23.1038 9.41095C23.0984 9.50144 23.0352 9.3747 23.0098 9.36312C22.9176 9.32142 22.8629 9.30358 22.8287 9.3886C22.8203 9.40856 22.9122 9.59373 22.8969 9.62354C22.876 9.66268 22.8391 9.59922 22.8184 9.64222C22.8166 9.64586 22.8474 9.6775 22.8265 9.6947C22.7299 9.77495 22.6158 9.85741 22.5335 9.96046C22.5222 9.97436 22.5903 10.0025 22.5751 10.0231C22.5039 10.1197 22.4229 10.221 22.3292 10.2985C22.3059 10.3175 22.2758 10.2747 22.2602 10.2716C22.1649 10.2544 22.2405 10.3726 22.238 10.3811C22.1742 10.5935 21.9929 10.6831 21.9506 10.9091C21.948 10.9223 22.0385 11.0585 21.9147 11.0514C21.9065 11.0506 21.7789 11.0448 21.8429 11.1086C21.8469 11.1125 21.9138 11.1111 21.8924 11.1499C21.8708 11.1892 21.8868 11.268 21.8035 11.3046C21.7773 11.3157 21.6479 11.3254 21.7237 11.4085C21.7285 11.4153 21.9145 11.5555 21.7625 11.5479C21.7375 11.5466 21.5848 11.503 21.6474 11.5903C21.6597 11.6068 21.6994 11.5916 21.7131 11.6302C21.7345 11.6888 21.6787 11.7493 21.7369 11.8251C21.7471 11.8388 21.8451 11.9019 21.759 11.9265C21.7455 11.9304 21.695 11.9113 21.6862 11.9304C21.6439 12.022 21.668 12.1269 21.6247 12.2221C21.6095 12.2562 21.5254 12.2326 21.5003 12.2689C21.4752 12.3052 21.4502 12.3809 21.4887 12.4214C21.5271 12.4614 21.6636 12.4212 21.674 12.4781C21.6754 12.4854 21.6766 12.4927 21.6778 12.5C21.7166 12.7362 21.6625 12.9752 21.6955 13.215C21.7006 13.2513 21.7427 13.2126 21.7539 13.2645C21.7938 13.4597 21.9355 13.7632 21.9076 13.9601C21.8849 14.1211 21.758 13.9815 21.7694 14.0955C21.776 14.152 21.944 14.1384 21.9535 14.147C22.0505 14.2347 22.0268 14.3407 22.0998 14.4264C22.1149 14.4438 22.1596 14.3928 22.1717 14.4077C22.2133 14.4579 22.2242 14.5306 22.2622 14.58C22.2794 14.6019 22.3176 14.5709 22.3283 14.594C22.3546 14.6489 22.368 14.7043 22.3662 14.7798C22.3661 14.7868 22.2947 14.7924 22.3202 14.8311C22.3613 14.8932 22.3839 14.9959 22.4757 15.0323C22.5031 15.0431 22.5884 14.9709 22.5654 15.0623C22.5607 15.0813 22.4503 15.1598 22.5798 15.1304C22.6021 15.1266 22.7868 15.0958 22.7503 15.2022C22.7407 15.2303 22.688 15.3334 22.7226 15.3429C22.7275 15.3439 22.7576 15.2893 22.7798 15.3027C22.8572 15.3505 22.9218 15.4178 23.0035 15.462C23.0253 15.4736 23.038 15.403 23.0689 15.4215C23.1535 15.4719 23.2397 15.5577 23.3071 15.6286C23.3319 15.6548 23.2824 15.6831 23.2813 15.6892C23.2641 15.7884 23.3546 15.7007 23.3697 15.7022C23.4644 15.7135 23.4888 15.7967 23.5651 15.8237C23.586 15.8311 23.6021 15.7725 23.6085 15.7702C23.6723 15.7479 23.5911 15.8229 23.6101 15.8471C23.6636 15.9152 23.7457 15.953 23.8221 15.9815C23.8501 15.9918 23.8496 15.916 23.8741 15.9258C24.0192 15.9819 24.1649 16.0473 24.2978 16.1307C24.3229 16.1465 24.2895 16.1907 24.2915 16.2039C24.3063 16.297 24.3998 16.2059 24.4158 16.1991C24.4905 16.169 24.5019 16.22 24.5587 16.2255C24.8339 16.2524 25.1612 16.3251 25.423 16.3474C25.449 16.3497 25.4746 16.352 25.5 16.3541C25.8037 16.3785 26.0615 16.3921 26.3556 16.3157C26.3757 16.3104 26.34 16.2469 26.3569 16.2415C26.5741 16.1748 26.7963 16.1313 26.9987 16.0234C27.0152 16.0146 26.9647 15.9644 26.99 15.9484C27.0415 15.9153 27.1114 15.8868 27.1757 15.8782C27.2071 15.8739 27.1963 15.9428 27.2277 15.9372C27.3011 15.9241 27.3716 15.8914 27.4301 15.8453C27.4548 15.8256 27.3803 15.7907 27.4146 15.7698C27.647 15.6251 27.8506 15.4604 28.1154 15.3356C28.1334 15.3271 28.2401 15.4157 28.2525 15.3673C28.2284 15.3376 28.1972 15.3054 28.1699 15.2751C28.4438 14.9809 28.7247 14.6902 28.9253 14.3328C28.9336 14.3179 28.8556 14.3094 28.8711 14.2807C28.9608 14.113 29.0148 13.9406 29.1478 13.7809C29.1608 13.7649 29.2788 13.8166 29.2792 13.7542C29.2794 13.7433 29.29 13.6533 29.2695 13.6238C29.2663 13.6197 29.2046 13.6177 29.2107 13.5906C29.2477 13.4328 29.2977 13.2728 29.3593 13.1171C29.3693 13.0919 29.4279 13.1297 29.4356 13.1115C29.4899 12.9818 29.4563 12.8305 29.5203 12.7031C29.5631 12.6173 29.6716 12.6539 29.7814 12.6078C29.7969 12.6012 29.8003 12.5432 29.8633 12.5406C30.0219 12.5336 30.1951 12.5658 30.3642 12.5552C30.4008 12.5529 30.3618 12.4639 30.4497 12.5168C30.4556 12.5205 30.4842 12.5858 30.5136 12.6027C30.5339 12.6144 30.5985 12.5952 30.6244 12.6191C30.6502 12.6433 30.5958 12.6674 30.6253 12.7072C30.655 12.7474 30.729 12.7329 30.7332 12.8131ZM23.4735 8.78704C23.399 8.75816 23.5026 8.95724 23.5231 8.88459C23.524 8.88085 23.4772 8.78842 23.4735 8.78704ZM28.971 10.0217C29.0117 9.90871 28.8672 9.95909 28.8336 10.0418C28.7989 10.1233 28.9581 10.0554 28.971 10.0217ZM29.3916 10.5836C29.4253 10.4766 29.1372 10.6121 29.231 10.6555C29.2363 10.658 29.3895 10.5898 29.3916 10.5836ZM29.8004 12.8398C29.8035 12.8394 29.8094 12.7978 29.8065 12.7966C29.737 12.7698 29.7253 12.8516 29.8004 12.8398ZM29.7241 11.2101C29.758 11.1732 29.6882 11.1185 29.6469 11.1649C29.6137 11.2016 29.6819 11.2552 29.7241 11.2101ZM21.4672 10.5729C21.4638 10.5722 21.4477 10.599 21.4651 10.6064C21.5211 10.6304 21.5238 10.5847 21.4672 10.5729ZM29.9181 12.4012C29.9253 12.2257 30.1778 12.0902 30.1599 12.2983C30.1563 12.3352 30.0725 12.2231 30.0511 12.271C30.0119 12.356 30.1783 12.4094 30.0902 12.4984C30.0742 12.5134 29.9173 12.4105 29.9177 12.4009C29.9178 12.401 29.9179 12.4011 29.9181 12.4012ZM23.3169 8.56567C23.3145 8.56355 23.2754 8.58237 23.2759 8.58548C23.291 8.6587 23.3687 8.62152 23.3169 8.56567ZM20.8964 12.3143C20.8897 12.3164 20.8809 12.4192 20.887 12.4227C21.002 12.477 21.0198 12.2747 20.8964 12.3143ZM26.1569 7.88318C26.215 7.81895 26.2771 7.82033 26.3 7.91568C26.253 7.90267 26.2044 7.89433 26.1569 7.88318Z" fill="#15171C"/>
<path d="M23 16L20.7707 17.834L23.4737 18.8476L23 16ZM20 24L20.2341 24.0878L22.4441 18.1945L22.21 18.1067L21.9759 18.019L19.7659 23.9122L20 24Z" fill="white"/>
<path opacity="0.75" d="M11 21L11.7471 23.7884L13.7884 21.7471L11 21ZM14 24L14.1768 23.8232L12.7678 22.4142L12.591 22.591L12.4142 22.7678L13.8232 24.1768L14 24Z" fill="white"/>
<path d="M21 13L16.7578 12.1319L18.1271 16.2398L21 13ZM12 16L12.1186 16.3558L17.9168 14.423L17.7982 14.0673L17.6796 13.7115L11.8814 15.6442L12 16Z" fill="white"/>
<path d="M16.8327 26.0854L17.3092 27.0543L17.7856 26.0854H18.5863L17.7736 27.5307L18.6083 29H17.7996L17.3092 28.0131L16.8187 29H16.008L16.8447 27.5307L16.03 26.0854H16.8327Z" fill="#15171C"/>
<path d="M24.7507 11.0854L25.2871 12.3506L25.8256 11.0854H26.5823L25.6454 12.9531V14H24.9308V12.9531L23.992 11.0854H24.7507Z" fill="#15171C"/>
</svg>
